<mxfile host="app.diagrams.net" modified="2020-12-14T14:10:47.006Z" agent="5.0 (Windows)" etag="-147vvF5PyIu2MjSBcYj" version="14.0.0" type="github">
  <diagram id="HGwa4h5siP3JCpQNrlbD" name="Page-1">
    <mxGraphModel dx="1038" dy="547" grid="1" gridSize="10" guides="1" tooltips="1" connect="1" arrows="1" fold="1" page="1" pageScale="1" pageWidth="1169" pageHeight="827" math="0" shadow="0">
      <root>
        <mxCell id="0" />
        <mxCell id="1" parent="0" />
        <mxCell id="k8ReJaDi3zW-t70HLrM6-5" value="Asset Management" style="swimlane;" vertex="1" parent="1">
          <mxGeometry x="10" y="10" width="1150" height="810" as="geometry" />
        </mxCell>
        <mxCell id="k8ReJaDi3zW-t70HLrM6-10" value="SCO updates the asset register once new items are received, tagged and issued" style="rounded=0;whiteSpace=wrap;html=1;" vertex="1" parent="k8ReJaDi3zW-t70HLrM6-5">
          <mxGeometry x="220" y="250" width="160" height="60" as="geometry" />
        </mxCell>
        <mxCell id="k8ReJaDi3zW-t70HLrM6-11" value="Items can also be re-allocation to other persons where applucable and the asset register is updated accordingly" style="whiteSpace=wrap;html=1;rounded=0;" vertex="1" parent="k8ReJaDi3zW-t70HLrM6-5">
          <mxGeometry x="200" y="390" width="200" height="90" as="geometry" />
        </mxCell>
        <mxCell id="k8ReJaDi3zW-t70HLrM6-12" value="" style="edgeStyle=orthogonalEdgeStyle;rounded=0;orthogonalLoop=1;jettySize=auto;html=1;" edge="1" parent="k8ReJaDi3zW-t70HLrM6-5" source="k8ReJaDi3zW-t70HLrM6-10" target="k8ReJaDi3zW-t70HLrM6-11">
          <mxGeometry relative="1" as="geometry" />
        </mxCell>
        <mxCell id="k8ReJaDi3zW-t70HLrM6-8" value="" style="edgeStyle=orthogonalEdgeStyle;rounded=0;orthogonalLoop=1;jettySize=auto;html=1;" edge="1" parent="1" source="k8ReJaDi3zW-t70HLrM6-6" target="k8ReJaDi3zW-t70HLrM6-10">
          <mxGeometry relative="1" as="geometry">
            <mxPoint x="310" y="235" as="targetPoint" />
          </mxGeometry>
        </mxCell>
        <mxCell id="k8ReJaDi3zW-t70HLrM6-6" value="Start" style="rounded=1;whiteSpace=wrap;html=1;" vertex="1" parent="1">
          <mxGeometry x="260" y="120" width="100" height="50" as="geometry" />
        </mxCell>
      </root>
    </mxGraphModel>
  </diagram>
</mxfile>
